<svg xmlns="http://www.w3.org/2000/svg" width="277.41" height="233.66"><defs><style>.a{fill:#cdc8a1}.b{fill:#5a4a42}.d{fill:#f89c1c}.e{fill:#fff}</style></defs><path class="a" d="M276.92 86.58S256.45 58.73 213.55 61c-15.07-23.13-38.4-62.32-71.25-61-36.45 1.51-62.2 42-77.89 64.16-10.92.15-22.49 1.3-31.8 4.58C11.33 76.26 7.21 84.26 6.43 86.6a1.44 1.44 0 00-.17.66c.36 6 16.38 31 24.22 33.83 6.3 2.29 39.08 2.51 51.68 2.51-.35 2.69.39 5.4 1.74 6.75 1.78 1.78 115 1.07 116.81.36 1.36-.55 2.3-4.86 1.23-8.12 17.57.26 50.29-.65 55.4-2.92 6.41-2.82 23.14-31.31 19.58-33.09zM118.8 182.37c-14.25 8.91-31 29.21-53.06 31.34s-22.08-17.8-14.25-25.64 19.59-8.54 21.72-3.2-6.76 7.48-7.83 4.27-5.7 8.55 4.63 9.26 22.44-10.33 12.11-22.08-42-3.92-46.3 23.51 27.07 38.1 50.22 23.5 42.73-21 48.07-16.74 15-4.63 9.26-13.17c-.59-.89-10.37-19.95-24.57-11.05zM210.61 176.32c-10.33 11.75 1.78 22.79 12.11 22.08s5.7-12.46 4.63-9.26-10 1.07-7.84-4.27 13.89-4.63 21.73 3.2 7.83 27.78-14.25 25.64-38.82-22.43-53.06-31.34-24 10.16-24.58 11c-5.69 8.54 3.92 17.45 9.26 13.17s24.93 2.14 48.08 16.74 54.49 3.92 50.22-23.5-35.97-35.21-46.3-23.46zM130.73 167.77c4.27-5.34 8.9-22.79-1.78-25.64-7.92-2.11-27.78-.35-31 2.49s-3.92 22.8 2.13 27.07 26.38 1.43 30.65-3.92z"/><g><path class="b" d="M219 80c13.18 10 48.08 8.55 51.64 10.33 0 0-20.47-27.85-63.37-25.57C212 72 215.89 77.66 219 80zM0 91.07zM50.57 77.89A120.23 120.23 0 0058.14 68c-10.91.15-22.48 1.3-31.79 4.58C5.07 80 1 88 .17 90.39c2.57-4.65 36.76 2.85 50.4-12.5z"/><path d="M270.66 90.36C267.1 88.58 232.2 90 219 80c-3.13-2.37-7-8-11.73-15.24-15.07-23.13-38.4-62.33-71.25-61-36.45 1.5-62.2 42-77.9 64.15a120.23 120.23 0 01-7.57 9.92C36.93 93.24 2.74 85.74.17 90.39A1.19 1.19 0 000 91c.36 6.05 16.38 31 24.22 33.83 6.3 2.29 39.08 2.51 51.68 2.51a9.33 9.33 0 01.67-2.51c1.07-2.49 10.33-7.48 15.31-8.54s82.63-1.79 85.47-1.07 13.54 5.7 16.74 8.54a5.83 5.83 0 011.59 2.57c17.57.26 50.29-.65 55.39-2.92 6.42-2.78 23.15-31.27 19.59-33.05z" fill="#716558"/><path class="d" d="M177.35 115.29c-2.84-.72-80.48 0-85.47 1.07s-14.24 6-15.31 8.54a9.33 9.33 0 00-.67 2.51c-.35 2.69.39 5.4 1.74 6.75 1.78 1.78 115 1.07 116.81.36 1.36-.55 2.3-4.85 1.23-8.12a5.83 5.83 0 00-1.59-2.57c-3.2-2.83-13.89-7.83-16.74-8.54z"/><path class="b" d="M112.54 186.16c-14.25 8.9-31 29.2-53.07 31.34s-22.08-17.81-14.24-25.64 19.59-8.55 21.72-3.21-6.76 7.48-7.83 4.27-5.7 8.55 4.63 9.26 22.43-10.32 12.11-22.08-42-3.91-46.3 23.51 27.07 38.1 50.21 23.5 42.74-21 48.08-16.74 15-4.63 9.26-13.17c-.59-.89-10.33-19.95-24.57-11.04zM204.35 180.1c-10.33 11.76 1.78 22.8 12.11 22.08s5.69-12.46 4.63-9.26-10 1.07-7.84-4.27 13.89-4.65 21.75 3.21 7.83 27.77-14.25 25.64-38.82-22.44-53.06-31.34-24 10.15-24.58 11c-5.69 8.54 3.92 17.45 9.26 13.17s24.93 2.14 48.08 16.74 54.49 3.92 50.22-23.5-35.99-35.22-46.32-23.47z"/><path class="d" d="M124.47 171.56c4.27-5.35 8.9-22.8-1.78-25.65-7.92-2.11-27.78-.35-31 2.5s-3.91 22.79 2.14 27.06 26.37 1.43 30.64-3.91z"/><path class="e" d="M118.91 60.76a7.84 7.84 0 01-3.28-.69 8.29 8.29 0 01-2.67-1.9 9 9 0 01-1.8-2.8 9.12 9.12 0 01-.65-3.44 10 10 0 01.72-3.79 9.76 9.76 0 012-3.11 9.6 9.6 0 012.94-2.09 8.67 8.67 0 013.61-.77 10.88 10.88 0 012.76.33 7.89 7.89 0 012.18.9 4.39 4.39 0 011.42 1.35 3 3 0 01.51 1.68 1.57 1.57 0 01-.2.76 2.12 2.12 0 01-.55.61 2.69 2.69 0 01-.76.42 2.33 2.33 0 01-.85.16 2.2 2.2 0 01-.86-.17 1.93 1.93 0 01-.66-.45 2.21 2.21 0 01-.41-.63 1.94 1.94 0 01-.14-.7 4.82 4.82 0 00-.13-1.17 2.07 2.07 0 00-.47-.92 2.3 2.3 0 00-.92-.62 4.07 4.07 0 00-1.47-.22 4.65 4.65 0 00-2.23.5 4.81 4.81 0 00-1.62 1.31 6 6 0 00-1 2 7.76 7.76 0 00-.36 2.39 11.78 11.78 0 00.44 3.23 9 9 0 001.26 2.68 6.43 6.43 0 002 1.81 4.94 4.94 0 002.55.68 5.41 5.41 0 002.16-.39A5 5 0 00124 56.6a6.42 6.42 0 001.16-1.54 15 15 0 00.84-1.86l1.07.43a12.3 12.3 0 01-1.21 3 9 9 0 01-1.8 2.24 7.33 7.33 0 01-2.34 1.4 7.94 7.94 0 01-2.81.49zM136.11 59.53a3.85 3.85 0 001.34-.22 3.53 3.53 0 001.06-.6 3 3 0 00.69-.84 2 2 0 00.25-1 2.43 2.43 0 00-.41-1.43 4.29 4.29 0 00-1.04-1.06 8.66 8.66 0 00-1.53-.89l-1.75-.82c-.59-.28-1.18-.59-1.75-.91a8 8 0 01-1.53-1.13 5.35 5.35 0 01-1.09-1.49 4.53 4.53 0 01-.41-2 4.44 4.44 0 01.46-2 4.75 4.75 0 011.27-1.58 5.86 5.86 0 011.93-1 7.57 7.57 0 012.44-.37 9.8 9.8 0 011.66.13 5.51 5.51 0 011.51.47 6.72 6.72 0 011.48 1 12.86 12.86 0 011.54 1.71l-1.29 1.15a7.63 7.63 0 00-2.28-2.47 4.86 4.86 0 00-2.68-.81 4.67 4.67 0 00-1.39.19 3.53 3.53 0 00-1.07.5 2.51 2.51 0 00-.7.76 1.82 1.82 0 00-.24.91 2.26 2.26 0 00.45 1.4 4.58 4.58 0 001.18 1.08 9.62 9.62 0 001.66.89l1.91.82c.65.28 1.28.59 1.9.91a9.1 9.1 0 011.66 1.12 5.24 5.24 0 011.18 1.48 4.07 4.07 0 01.45 1.95 5.35 5.35 0 01-.42 2.12 4.51 4.51 0 01-1.27 1.71 6.35 6.35 0 01-2.13 1.14 9.61 9.61 0 01-3 .42 11.08 11.08 0 01-1.6-.12 7.74 7.74 0 01-1.66-.48 7.49 7.49 0 01-1.68-1 9.3 9.3 0 01-1.64-1.71l1.43-1.33a14.12 14.12 0 001.24 1.57 6.4 6.4 0 001.21 1 4.74 4.74 0 001.27.6 5.29 5.29 0 001.39.23zM152.21 59.53a3.88 3.88 0 001.34-.22 3.35 3.35 0 001-.6 3 3 0 00.69-.84 2 2 0 00.26-1 2.51 2.51 0 00-.41-1.43 4.51 4.51 0 00-1.09-1.09 8.66 8.66 0 00-1.53-.89l-1.75-.82c-.59-.28-1.17-.59-1.75-.91a8 8 0 01-1.53-1.13 5.13 5.13 0 01-1.08-1.49 4.39 4.39 0 01-.41-2 4.32 4.32 0 01.46-2 4.51 4.51 0 011.27-1.58 5.91 5.91 0 011.92-1 7.57 7.57 0 012.44-.37 9.72 9.72 0 011.66.13 5.4 5.4 0 011.51.47 6.72 6.72 0 011.48 1 12.2 12.2 0 011.54 1.71L157 46.64a7.5 7.5 0 00-2.27-2.47 4.9 4.9 0 00-2.69-.81 4.56 4.56 0 00-1.38.19 3.59 3.59 0 00-1.08.5 2.36 2.36 0 00-.69.76 1.73 1.73 0 00-.25.91 2.26 2.26 0 00.45 1.4 4.75 4.75 0 001.18 1.08 10 10 0 001.66.89l1.91.82c.65.28 1.28.59 1.9.91a8.76 8.76 0 011.66 1.12 5.07 5.07 0 011.18 1.48 4.07 4.07 0 01.45 1.95 5.35 5.35 0 01-.42 2.12 4.51 4.51 0 01-1.27 1.71 6.2 6.2 0 01-2.12 1.14 9.7 9.7 0 01-3 .42 11 11 0 01-1.6-.12 7.58 7.58 0 01-1.66-.48 7.49 7.49 0 01-1.68-1 9 9 0 01-1.64-1.71l1.44-1.31a14.12 14.12 0 001.24 1.57 6.73 6.73 0 001.21 1 4.89 4.89 0 001.27.6 5.36 5.36 0 001.41.22z"/></g></svg>